<mxfile host="Electron" modified="2024-05-06T14:13:04.910Z" agent="Mozilla/5.0 (X11; Linux x86_64) AppleWebKit/537.36 (KHTML, like Gecko) draw.io/24.2.5 Chrome/120.0.6099.109 Electron/28.1.0 Safari/537.36" etag="9be0PI79-vPzw2l8e2mX" version="24.2.5" type="device">
  <diagram name="Page-1" id="7z2JI6d6Ksnr06_BLwVR">
    <mxGraphModel dx="1288" dy="648" grid="1" gridSize="10" guides="1" tooltips="1" connect="1" arrows="1" fold="1" page="1" pageScale="1" pageWidth="1169" pageHeight="827" math="0" shadow="0">
      <root>
        <mxCell id="0" />
        <mxCell id="1" parent="0" />
        <mxCell id="nkMUAahVnBc998OKHm-6-5" style="edgeStyle=orthogonalEdgeStyle;rounded=0;orthogonalLoop=1;jettySize=auto;html=1;exitX=1;exitY=0.5;exitDx=0;exitDy=0;" edge="1" parent="1" source="nkMUAahVnBc998OKHm-6-1" target="nkMUAahVnBc998OKHm-6-4">
          <mxGeometry relative="1" as="geometry" />
        </mxCell>
        <mxCell id="nkMUAahVnBc998OKHm-6-1" value="&lt;div&gt;&lt;font style=&quot;font-size: 14px;&quot;&gt;PGM/PNG&lt;/font&gt;&lt;/div&gt;&lt;font size=&quot;3&quot;&gt;Input Image&lt;/font&gt;" style="rounded=1;whiteSpace=wrap;html=1;" vertex="1" parent="1">
          <mxGeometry x="180" y="230" width="120" height="80" as="geometry" />
        </mxCell>
        <mxCell id="nkMUAahVnBc998OKHm-6-2" value="&lt;span style=&quot;font-size: 14px;&quot;&gt;Grayscale&amp;nbsp;&lt;/span&gt;&lt;div&gt;&lt;span style=&quot;font-size: 14px;&quot;&gt;Binary image&lt;/span&gt;&lt;/div&gt;" style="rounded=1;whiteSpace=wrap;html=1;" vertex="1" parent="1">
          <mxGeometry x="590" y="230" width="120" height="80" as="geometry" />
        </mxCell>
        <mxCell id="nkMUAahVnBc998OKHm-6-3" value="&lt;b&gt;&lt;font style=&quot;font-size: 18px;&quot;&gt;Canny Image Edge Detection Algorithm Pipeline on FPGA&lt;/font&gt;&lt;/b&gt;" style="text;html=1;align=center;verticalAlign=middle;whiteSpace=wrap;rounded=0;" vertex="1" parent="1">
          <mxGeometry x="325" y="140" width="520" height="30" as="geometry" />
        </mxCell>
        <mxCell id="nkMUAahVnBc998OKHm-6-6" style="edgeStyle=orthogonalEdgeStyle;rounded=0;orthogonalLoop=1;jettySize=auto;html=1;exitX=1;exitY=0.5;exitDx=0;exitDy=0;" edge="1" parent="1" source="nkMUAahVnBc998OKHm-6-4" target="nkMUAahVnBc998OKHm-6-2">
          <mxGeometry relative="1" as="geometry" />
        </mxCell>
        <mxCell id="nkMUAahVnBc998OKHm-6-4" value="MATLAB" style="triangle;whiteSpace=wrap;html=1;" vertex="1" parent="1">
          <mxGeometry x="405" y="220" width="100" height="100" as="geometry" />
        </mxCell>
        <mxCell id="nkMUAahVnBc998OKHm-6-14" style="edgeStyle=orthogonalEdgeStyle;rounded=0;orthogonalLoop=1;jettySize=auto;html=1;" edge="1" parent="1" source="nkMUAahVnBc998OKHm-6-8" target="nkMUAahVnBc998OKHm-6-9">
          <mxGeometry relative="1" as="geometry" />
        </mxCell>
        <mxCell id="nkMUAahVnBc998OKHm-6-8" value="&lt;span style=&quot;font-size: 14px;&quot;&gt;Gaussian Filter Image Smoothing&lt;/span&gt;" style="rounded=1;whiteSpace=wrap;html=1;" vertex="1" parent="1">
          <mxGeometry x="850" y="210" width="160" height="140" as="geometry" />
        </mxCell>
        <mxCell id="nkMUAahVnBc998OKHm-6-15" style="edgeStyle=orthogonalEdgeStyle;rounded=0;orthogonalLoop=1;jettySize=auto;html=1;entryX=1;entryY=0.5;entryDx=0;entryDy=0;" edge="1" parent="1" source="nkMUAahVnBc998OKHm-6-9" target="nkMUAahVnBc998OKHm-6-10">
          <mxGeometry relative="1" as="geometry" />
        </mxCell>
        <mxCell id="nkMUAahVnBc998OKHm-6-9" value="&lt;span style=&quot;font-size: 14px;&quot;&gt;Gradient&amp;nbsp;&lt;/span&gt;&lt;div&gt;&lt;span style=&quot;font-size: 14px;&quot;&gt;Calculation&amp;nbsp;&lt;/span&gt;&lt;/div&gt;" style="rounded=1;whiteSpace=wrap;html=1;" vertex="1" parent="1">
          <mxGeometry x="860" y="410" width="140" height="110" as="geometry" />
        </mxCell>
        <mxCell id="nkMUAahVnBc998OKHm-6-10" value="&lt;span style=&quot;font-size: 14px;&quot;&gt;Non-maximal Pixel Suppression&lt;/span&gt;" style="rounded=1;whiteSpace=wrap;html=1;" vertex="1" parent="1">
          <mxGeometry x="560" y="390" width="160" height="150" as="geometry" />
        </mxCell>
        <mxCell id="nkMUAahVnBc998OKHm-6-18" style="edgeStyle=orthogonalEdgeStyle;rounded=0;orthogonalLoop=1;jettySize=auto;html=1;" edge="1" parent="1" source="nkMUAahVnBc998OKHm-6-11" target="nkMUAahVnBc998OKHm-6-12">
          <mxGeometry relative="1" as="geometry" />
        </mxCell>
        <mxCell id="nkMUAahVnBc998OKHm-6-11" value="&lt;span style=&quot;font-size: 14px;&quot;&gt;Double&amp;nbsp;&lt;/span&gt;&lt;div&gt;&lt;span style=&quot;font-size: 14px;&quot;&gt;Thresholding&lt;/span&gt;&lt;/div&gt;" style="rounded=1;whiteSpace=wrap;html=1;" vertex="1" parent="1">
          <mxGeometry x="355" y="405" width="150" height="110" as="geometry" />
        </mxCell>
        <mxCell id="nkMUAahVnBc998OKHm-6-25" style="edgeStyle=orthogonalEdgeStyle;rounded=0;orthogonalLoop=1;jettySize=auto;html=1;entryX=0.5;entryY=0;entryDx=0;entryDy=0;" edge="1" parent="1" source="nkMUAahVnBc998OKHm-6-12" target="nkMUAahVnBc998OKHm-6-19">
          <mxGeometry relative="1" as="geometry" />
        </mxCell>
        <mxCell id="nkMUAahVnBc998OKHm-6-12" value="&lt;span style=&quot;font-size: 14px;&quot;&gt;Edge Tracking by Hysteresis&lt;/span&gt;" style="rounded=1;whiteSpace=wrap;html=1;" vertex="1" parent="1">
          <mxGeometry x="160" y="400" width="140" height="120" as="geometry" />
        </mxCell>
        <mxCell id="nkMUAahVnBc998OKHm-6-13" style="edgeStyle=orthogonalEdgeStyle;rounded=0;orthogonalLoop=1;jettySize=auto;html=1;entryX=-0.012;entryY=0.426;entryDx=0;entryDy=0;entryPerimeter=0;" edge="1" parent="1" source="nkMUAahVnBc998OKHm-6-2" target="nkMUAahVnBc998OKHm-6-8">
          <mxGeometry relative="1" as="geometry" />
        </mxCell>
        <mxCell id="nkMUAahVnBc998OKHm-6-17" style="edgeStyle=orthogonalEdgeStyle;rounded=0;orthogonalLoop=1;jettySize=auto;html=1;entryX=0.99;entryY=0.55;entryDx=0;entryDy=0;entryPerimeter=0;" edge="1" parent="1" source="nkMUAahVnBc998OKHm-6-10" target="nkMUAahVnBc998OKHm-6-11">
          <mxGeometry relative="1" as="geometry" />
        </mxCell>
        <mxCell id="nkMUAahVnBc998OKHm-6-24" style="edgeStyle=orthogonalEdgeStyle;rounded=0;orthogonalLoop=1;jettySize=auto;html=1;entryX=0;entryY=0.5;entryDx=0;entryDy=0;" edge="1" parent="1" source="nkMUAahVnBc998OKHm-6-19" target="nkMUAahVnBc998OKHm-6-21">
          <mxGeometry relative="1" as="geometry" />
        </mxCell>
        <mxCell id="nkMUAahVnBc998OKHm-6-19" value="&lt;font style=&quot;font-size: 14px;&quot;&gt;Output&amp;nbsp;&lt;/font&gt;&lt;div&gt;&lt;font size=&quot;3&quot;&gt;Edge Image&lt;/font&gt;&lt;/div&gt;" style="rounded=1;whiteSpace=wrap;html=1;" vertex="1" parent="1">
          <mxGeometry x="177.5" y="600" width="105" height="80" as="geometry" />
        </mxCell>
        <mxCell id="nkMUAahVnBc998OKHm-6-23" style="edgeStyle=orthogonalEdgeStyle;rounded=0;orthogonalLoop=1;jettySize=auto;html=1;entryX=0;entryY=0.5;entryDx=0;entryDy=0;" edge="1" parent="1" source="nkMUAahVnBc998OKHm-6-21" target="nkMUAahVnBc998OKHm-6-22">
          <mxGeometry relative="1" as="geometry" />
        </mxCell>
        <mxCell id="nkMUAahVnBc998OKHm-6-21" value="MATLAB" style="triangle;whiteSpace=wrap;html=1;" vertex="1" parent="1">
          <mxGeometry x="390" y="590" width="100" height="100" as="geometry" />
        </mxCell>
        <mxCell id="nkMUAahVnBc998OKHm-6-22" value="&lt;div&gt;&lt;font style=&quot;font-size: 14px;&quot;&gt;PGM/PNG&lt;/font&gt;&lt;/div&gt;&lt;font size=&quot;3&quot;&gt;Input Image&lt;/font&gt;" style="rounded=1;whiteSpace=wrap;html=1;" vertex="1" parent="1">
          <mxGeometry x="575" y="600" width="120" height="80" as="geometry" />
        </mxCell>
      </root>
    </mxGraphModel>
  </diagram>
</mxfile>
